<mxfile host="app.diagrams.net" modified="2023-06-30T04:35:08.844Z" agent="Mozilla/5.0 (Windows NT 10.0; Win64; x64) AppleWebKit/537.36 (KHTML, like Gecko) Chrome/114.0.0.0 Safari/537.36" etag="QxpPKWe3ZoMeicsdc9Uz" version="21.5.0" type="device">
  <diagram name="Page-1" id="3faimR2YRpeYK3S1GJ6f">
    <mxGraphModel dx="1257" dy="610" grid="1" gridSize="10" guides="1" tooltips="1" connect="1" arrows="1" fold="1" page="1" pageScale="1" pageWidth="850" pageHeight="1100" math="0" shadow="0">
      <root>
        <mxCell id="0" />
        <mxCell id="1" parent="0" />
        <mxCell id="G-l7ATk8P0mUL0zN3ICd-1" value="" style="swimlane;startSize=0;" vertex="1" parent="1">
          <mxGeometry x="40" y="100" width="760" height="700" as="geometry" />
        </mxCell>
        <mxCell id="G-l7ATk8P0mUL0zN3ICd-35" value="Admin" style="swimlane;fontFamily=Times New Roman;" vertex="1" parent="G-l7ATk8P0mUL0zN3ICd-1">
          <mxGeometry x="40" y="30" width="220" height="630" as="geometry" />
        </mxCell>
        <mxCell id="G-l7ATk8P0mUL0zN3ICd-36" value="" style="ellipse;html=1;shape=startState;fillColor=#000000;strokeColor=#ff0000;fontFamily=Times New Roman;" vertex="1" parent="G-l7ATk8P0mUL0zN3ICd-35">
          <mxGeometry x="95" y="40" width="30" height="30" as="geometry" />
        </mxCell>
        <mxCell id="G-l7ATk8P0mUL0zN3ICd-37" value="" style="edgeStyle=orthogonalEdgeStyle;html=1;verticalAlign=bottom;endArrow=open;endSize=8;strokeColor=#ff0000;rounded=0;entryX=0.5;entryY=0;entryDx=0;entryDy=0;fontFamily=Times New Roman;" edge="1" parent="G-l7ATk8P0mUL0zN3ICd-35" source="G-l7ATk8P0mUL0zN3ICd-36" target="G-l7ATk8P0mUL0zN3ICd-38">
          <mxGeometry relative="1" as="geometry">
            <mxPoint x="110" y="130" as="targetPoint" />
          </mxGeometry>
        </mxCell>
        <mxCell id="G-l7ATk8P0mUL0zN3ICd-38" value="Pilih menu peemesanan kamar" style="rounded=1;whiteSpace=wrap;html=1;arcSize=40;fontColor=#000000;fillColor=#ffffc0;strokeColor=#ff0000;fontFamily=Times New Roman;" vertex="1" parent="G-l7ATk8P0mUL0zN3ICd-35">
          <mxGeometry x="30" y="100" width="160" height="40" as="geometry" />
        </mxCell>
        <mxCell id="G-l7ATk8P0mUL0zN3ICd-39" value="Isi data pemesanan kamar" style="rounded=1;whiteSpace=wrap;html=1;arcSize=40;fontColor=#000000;fillColor=#ffffc0;strokeColor=#ff0000;fontFamily=Times New Roman;" vertex="1" parent="G-l7ATk8P0mUL0zN3ICd-35">
          <mxGeometry x="40" y="180" width="140" height="40" as="geometry" />
        </mxCell>
        <mxCell id="G-l7ATk8P0mUL0zN3ICd-40" value="Simpan data pemesanan kamar" style="rounded=1;whiteSpace=wrap;html=1;arcSize=40;fontColor=#000000;fillColor=#ffffc0;strokeColor=#ff0000;fontFamily=Times New Roman;" vertex="1" parent="G-l7ATk8P0mUL0zN3ICd-35">
          <mxGeometry x="30" y="330" width="160" height="40" as="geometry" />
        </mxCell>
        <mxCell id="G-l7ATk8P0mUL0zN3ICd-41" value="Aplikasi Sistem" style="swimlane;fontFamily=Times New Roman;" vertex="1" parent="G-l7ATk8P0mUL0zN3ICd-1">
          <mxGeometry x="270" y="30" width="220" height="630" as="geometry" />
        </mxCell>
        <mxCell id="G-l7ATk8P0mUL0zN3ICd-42" value="Request" style="rounded=1;whiteSpace=wrap;html=1;arcSize=40;fontColor=#000000;fillColor=#ffffc0;strokeColor=#ff0000;fontFamily=Times New Roman;" vertex="1" parent="G-l7ATk8P0mUL0zN3ICd-41">
          <mxGeometry x="50" y="100" width="120" height="40" as="geometry" />
        </mxCell>
        <mxCell id="G-l7ATk8P0mUL0zN3ICd-43" value="Menu pemesanan kamar" style="rounded=1;whiteSpace=wrap;html=1;arcSize=40;fontColor=#000000;fillColor=#ffffc0;strokeColor=#ff0000;fontFamily=Times New Roman;" vertex="1" parent="G-l7ATk8P0mUL0zN3ICd-41">
          <mxGeometry x="45" y="180" width="130" height="40" as="geometry" />
        </mxCell>
        <mxCell id="G-l7ATk8P0mUL0zN3ICd-44" value="Request" style="rounded=1;whiteSpace=wrap;html=1;arcSize=40;fontColor=#000000;fillColor=#ffffc0;strokeColor=#ff0000;fontFamily=Times New Roman;" vertex="1" parent="G-l7ATk8P0mUL0zN3ICd-41">
          <mxGeometry x="50" y="260" width="120" height="40" as="geometry" />
        </mxCell>
        <mxCell id="G-l7ATk8P0mUL0zN3ICd-45" value="Menampilkan data pemesanan" style="rounded=1;whiteSpace=wrap;html=1;arcSize=40;fontColor=#000000;fillColor=#ffffc0;strokeColor=#ff0000;fontFamily=Times New Roman;" vertex="1" parent="G-l7ATk8P0mUL0zN3ICd-41">
          <mxGeometry x="30" y="330" width="160" height="40" as="geometry" />
        </mxCell>
        <mxCell id="G-l7ATk8P0mUL0zN3ICd-46" value="Menyimpan pemesanan kamar" style="rounded=1;whiteSpace=wrap;html=1;arcSize=40;fontColor=#000000;fillColor=#ffffc0;strokeColor=#ff0000;fontFamily=Times New Roman;" vertex="1" parent="G-l7ATk8P0mUL0zN3ICd-41">
          <mxGeometry x="30" y="400" width="160" height="40" as="geometry" />
        </mxCell>
        <mxCell id="G-l7ATk8P0mUL0zN3ICd-47" value="" style="strokeWidth=1;html=1;shape=mxgraph.flowchart.decision;whiteSpace=wrap;fillColor=#ffffc0;strokeColor=#ff0000;fontFamily=Times New Roman;" vertex="1" parent="G-l7ATk8P0mUL0zN3ICd-41">
          <mxGeometry x="75" y="480" width="70" height="50" as="geometry" />
        </mxCell>
        <mxCell id="G-l7ATk8P0mUL0zN3ICd-48" style="edgeStyle=orthogonalEdgeStyle;rounded=0;orthogonalLoop=1;jettySize=auto;html=1;entryX=0.5;entryY=1;entryDx=0;entryDy=0;strokeColor=#ff0000;exitX=0;exitY=0.5;exitDx=0;exitDy=0;exitPerimeter=0;fontFamily=Times New Roman;" edge="1" parent="G-l7ATk8P0mUL0zN3ICd-41" source="G-l7ATk8P0mUL0zN3ICd-47" target="G-l7ATk8P0mUL0zN3ICd-42">
          <mxGeometry relative="1" as="geometry">
            <mxPoint x="20" y="330" as="targetPoint" />
            <mxPoint x="60" y="500" as="sourcePoint" />
            <Array as="points">
              <mxPoint x="10" y="505" />
              <mxPoint x="10" y="160" />
              <mxPoint x="110" y="160" />
            </Array>
          </mxGeometry>
        </mxCell>
        <mxCell id="G-l7ATk8P0mUL0zN3ICd-49" value="Batal" style="text;html=1;align=center;verticalAlign=middle;resizable=0;points=[];autosize=1;strokeColor=none;fillColor=none;fontFamily=Times New Roman;" vertex="1" parent="G-l7ATk8P0mUL0zN3ICd-41">
          <mxGeometry x="20" y="480" width="50" height="30" as="geometry" />
        </mxCell>
        <mxCell id="G-l7ATk8P0mUL0zN3ICd-50" value="Oke" style="text;html=1;align=center;verticalAlign=middle;resizable=0;points=[];autosize=1;strokeColor=none;fillColor=none;fontFamily=Times New Roman;" vertex="1" parent="G-l7ATk8P0mUL0zN3ICd-41">
          <mxGeometry x="160" y="480" width="40" height="30" as="geometry" />
        </mxCell>
        <mxCell id="G-l7ATk8P0mUL0zN3ICd-51" value="" style="edgeStyle=orthogonalEdgeStyle;html=1;verticalAlign=bottom;endArrow=open;endSize=8;strokeColor=#ff0000;rounded=0;fontFamily=Times New Roman;entryX=0.5;entryY=0;entryDx=0;entryDy=0;entryPerimeter=0;" edge="1" parent="G-l7ATk8P0mUL0zN3ICd-41" source="G-l7ATk8P0mUL0zN3ICd-46" target="G-l7ATk8P0mUL0zN3ICd-47">
          <mxGeometry relative="1" as="geometry">
            <mxPoint x="130" y="480" as="targetPoint" />
          </mxGeometry>
        </mxCell>
        <mxCell id="G-l7ATk8P0mUL0zN3ICd-52" value="Database" style="swimlane;fontFamily=Times New Roman;" vertex="1" parent="G-l7ATk8P0mUL0zN3ICd-1">
          <mxGeometry x="500" y="30" width="220" height="630" as="geometry" />
        </mxCell>
        <mxCell id="G-l7ATk8P0mUL0zN3ICd-53" value="Eksekusi" style="rounded=1;whiteSpace=wrap;html=1;arcSize=40;fontColor=#000000;fillColor=#ffffc0;strokeColor=#ff0000;fontFamily=Times New Roman;" vertex="1" parent="G-l7ATk8P0mUL0zN3ICd-52">
          <mxGeometry x="50" y="100" width="120" height="40" as="geometry" />
        </mxCell>
        <mxCell id="G-l7ATk8P0mUL0zN3ICd-54" value="Eksekusi" style="rounded=1;whiteSpace=wrap;html=1;arcSize=40;fontColor=#000000;fillColor=#ffffc0;strokeColor=#ff0000;fontFamily=Times New Roman;" vertex="1" parent="G-l7ATk8P0mUL0zN3ICd-52">
          <mxGeometry x="50" y="260" width="120" height="40" as="geometry" />
        </mxCell>
        <mxCell id="G-l7ATk8P0mUL0zN3ICd-55" value="Pemesanan kamar disimpan" style="rounded=1;whiteSpace=wrap;html=1;arcSize=40;fontColor=#000000;fillColor=#ffffc0;strokeColor=#ff0000;fontFamily=Times New Roman;" vertex="1" parent="G-l7ATk8P0mUL0zN3ICd-52">
          <mxGeometry x="35" y="485" width="150" height="40" as="geometry" />
        </mxCell>
        <mxCell id="G-l7ATk8P0mUL0zN3ICd-56" value="" style="edgeStyle=orthogonalEdgeStyle;html=1;verticalAlign=bottom;endArrow=open;endSize=8;strokeColor=#ff0000;rounded=0;exitX=1;exitY=0.5;exitDx=0;exitDy=0;entryX=0;entryY=0.5;entryDx=0;entryDy=0;fontFamily=Times New Roman;" edge="1" parent="G-l7ATk8P0mUL0zN3ICd-1" source="G-l7ATk8P0mUL0zN3ICd-38" target="G-l7ATk8P0mUL0zN3ICd-42">
          <mxGeometry relative="1" as="geometry">
            <mxPoint x="180" y="230" as="targetPoint" />
          </mxGeometry>
        </mxCell>
        <mxCell id="G-l7ATk8P0mUL0zN3ICd-57" value="" style="edgeStyle=orthogonalEdgeStyle;html=1;verticalAlign=bottom;endArrow=open;endSize=8;strokeColor=#ff0000;rounded=0;exitX=1;exitY=0.5;exitDx=0;exitDy=0;entryX=0;entryY=0.5;entryDx=0;entryDy=0;fontFamily=Times New Roman;" edge="1" parent="G-l7ATk8P0mUL0zN3ICd-1" source="G-l7ATk8P0mUL0zN3ICd-42" target="G-l7ATk8P0mUL0zN3ICd-53">
          <mxGeometry relative="1" as="geometry">
            <mxPoint x="390" y="230" as="targetPoint" />
          </mxGeometry>
        </mxCell>
        <mxCell id="G-l7ATk8P0mUL0zN3ICd-58" value="" style="edgeStyle=orthogonalEdgeStyle;html=1;verticalAlign=bottom;endArrow=open;endSize=8;strokeColor=#ff0000;rounded=0;entryX=1;entryY=0.5;entryDx=0;entryDy=0;exitX=0.5;exitY=1;exitDx=0;exitDy=0;fontFamily=Times New Roman;" edge="1" parent="G-l7ATk8P0mUL0zN3ICd-1" source="G-l7ATk8P0mUL0zN3ICd-53" target="G-l7ATk8P0mUL0zN3ICd-43">
          <mxGeometry relative="1" as="geometry">
            <mxPoint x="600" y="230" as="targetPoint" />
          </mxGeometry>
        </mxCell>
        <mxCell id="G-l7ATk8P0mUL0zN3ICd-59" value="" style="edgeStyle=orthogonalEdgeStyle;html=1;verticalAlign=bottom;endArrow=open;endSize=8;strokeColor=#ff0000;rounded=0;exitX=0;exitY=0.5;exitDx=0;exitDy=0;entryX=1;entryY=0.5;entryDx=0;entryDy=0;fontFamily=Times New Roman;" edge="1" parent="G-l7ATk8P0mUL0zN3ICd-1" source="G-l7ATk8P0mUL0zN3ICd-43" target="G-l7ATk8P0mUL0zN3ICd-39">
          <mxGeometry relative="1" as="geometry">
            <mxPoint x="390" y="330" as="targetPoint" />
          </mxGeometry>
        </mxCell>
        <mxCell id="G-l7ATk8P0mUL0zN3ICd-60" value="" style="edgeStyle=orthogonalEdgeStyle;html=1;verticalAlign=bottom;endArrow=open;endSize=8;strokeColor=#ff0000;rounded=0;exitX=0.5;exitY=1;exitDx=0;exitDy=0;entryX=0;entryY=0.5;entryDx=0;entryDy=0;fontFamily=Times New Roman;" edge="1" parent="G-l7ATk8P0mUL0zN3ICd-1" source="G-l7ATk8P0mUL0zN3ICd-39" target="G-l7ATk8P0mUL0zN3ICd-44">
          <mxGeometry relative="1" as="geometry">
            <mxPoint x="240" y="380" as="targetPoint" />
            <mxPoint x="240" y="300" as="sourcePoint" />
            <Array as="points">
              <mxPoint x="180" y="310" />
            </Array>
          </mxGeometry>
        </mxCell>
        <mxCell id="G-l7ATk8P0mUL0zN3ICd-61" value="" style="edgeStyle=orthogonalEdgeStyle;html=1;verticalAlign=bottom;endArrow=open;endSize=8;strokeColor=#ff0000;rounded=0;exitX=1;exitY=0.5;exitDx=0;exitDy=0;entryX=0;entryY=0.5;entryDx=0;entryDy=0;fontFamily=Times New Roman;" edge="1" parent="G-l7ATk8P0mUL0zN3ICd-1" source="G-l7ATk8P0mUL0zN3ICd-44" target="G-l7ATk8P0mUL0zN3ICd-54">
          <mxGeometry relative="1" as="geometry">
            <mxPoint x="390" y="430" as="targetPoint" />
          </mxGeometry>
        </mxCell>
        <mxCell id="G-l7ATk8P0mUL0zN3ICd-62" value="" style="edgeStyle=orthogonalEdgeStyle;html=1;verticalAlign=bottom;endArrow=open;endSize=8;strokeColor=#ff0000;rounded=0;entryX=1;entryY=0.5;entryDx=0;entryDy=0;exitX=0.5;exitY=1;exitDx=0;exitDy=0;fontFamily=Times New Roman;" edge="1" parent="G-l7ATk8P0mUL0zN3ICd-1" source="G-l7ATk8P0mUL0zN3ICd-54" target="G-l7ATk8P0mUL0zN3ICd-45">
          <mxGeometry relative="1" as="geometry">
            <mxPoint x="600" y="380" as="targetPoint" />
          </mxGeometry>
        </mxCell>
        <mxCell id="G-l7ATk8P0mUL0zN3ICd-63" value="" style="edgeStyle=orthogonalEdgeStyle;html=1;verticalAlign=bottom;endArrow=open;endSize=8;strokeColor=#ff0000;rounded=0;exitX=0;exitY=0.5;exitDx=0;exitDy=0;entryX=1;entryY=0.5;entryDx=0;entryDy=0;fontFamily=Times New Roman;" edge="1" parent="G-l7ATk8P0mUL0zN3ICd-1" source="G-l7ATk8P0mUL0zN3ICd-45" target="G-l7ATk8P0mUL0zN3ICd-40">
          <mxGeometry relative="1" as="geometry">
            <mxPoint x="390" y="460" as="targetPoint" />
          </mxGeometry>
        </mxCell>
        <mxCell id="G-l7ATk8P0mUL0zN3ICd-64" value="" style="edgeStyle=orthogonalEdgeStyle;html=1;verticalAlign=bottom;endArrow=open;endSize=8;strokeColor=#ff0000;rounded=0;entryX=0;entryY=0.5;entryDx=0;entryDy=0;exitX=0.5;exitY=1;exitDx=0;exitDy=0;fontFamily=Times New Roman;" edge="1" parent="G-l7ATk8P0mUL0zN3ICd-1" source="G-l7ATk8P0mUL0zN3ICd-40" target="G-l7ATk8P0mUL0zN3ICd-46">
          <mxGeometry relative="1" as="geometry">
            <mxPoint x="180" y="510" as="targetPoint" />
          </mxGeometry>
        </mxCell>
        <mxCell id="G-l7ATk8P0mUL0zN3ICd-65" style="edgeStyle=orthogonalEdgeStyle;rounded=0;orthogonalLoop=1;jettySize=auto;html=1;exitX=1;exitY=0.5;exitDx=0;exitDy=0;strokeColor=#ff0000;exitPerimeter=0;fontFamily=Times New Roman;" edge="1" parent="G-l7ATk8P0mUL0zN3ICd-1" source="G-l7ATk8P0mUL0zN3ICd-47" target="G-l7ATk8P0mUL0zN3ICd-55">
          <mxGeometry relative="1" as="geometry">
            <mxPoint x="440" y="530" as="sourcePoint" />
          </mxGeometry>
        </mxCell>
        <mxCell id="G-l7ATk8P0mUL0zN3ICd-66" value="" style="edgeStyle=orthogonalEdgeStyle;html=1;verticalAlign=bottom;endArrow=open;endSize=8;strokeColor=#ff0000;rounded=0;fontFamily=Times New Roman;" edge="1" parent="G-l7ATk8P0mUL0zN3ICd-1" source="G-l7ATk8P0mUL0zN3ICd-55">
          <mxGeometry relative="1" as="geometry">
            <mxPoint x="610" y="590" as="targetPoint" />
          </mxGeometry>
        </mxCell>
        <mxCell id="G-l7ATk8P0mUL0zN3ICd-67" value="" style="ellipse;html=1;shape=endState;fillColor=#000000;strokeColor=#ff0000;fontFamily=Times New Roman;" vertex="1" parent="G-l7ATk8P0mUL0zN3ICd-1">
          <mxGeometry x="595" y="590" width="30" height="30" as="geometry" />
        </mxCell>
      </root>
    </mxGraphModel>
  </diagram>
</mxfile>
